<svg xmlns="http://www.w3.org/2000/svg" xml:space="preserve" viewBox="0 0 429 582"><path d="M226 583H1V1h429v582H226M41.15 462.39c.004 29.198.009 58.395.198 88.451.662.053 1.323.153 1.985.153 115.553.006 231.107.009 346.661-.036 1.283 0 2.566-.622 3.996-1.88.002-27.544.02-55.088-.035-82.632-.002-1.436-.626-2.871-1.885-4.429-108.04-.004-216.08-.013-324.12-.007-8.653 0-17.306.095-26.8.38m67.541-66.203c-13.9-.012-27.802-.024-42.51.158-1.761.212-3.556.754-5.276.576-5.46-.567-8.773 1.02-9.069 7.157-.12 2.509-1.323 4.973-2.081 7.443-2.89 9.412-5.941 18.777-8.608 28.251-.772 2.743-1.373 5.25 3.483 6.518 18.838 4.92 37.929 6.767 57.674 7.54 16.613.06 33.226.13 49.84.137.656 0 1.314-.626 2.894-.973 10.588-.334 21.177-.662 31.765-1.003 10.092-.324 20.184-.682 30.277-.99 11.756-.358 23.514-.647 35.27-1.024 8.757-.28 17.514-.606 26.267-.998 5.429-.242 10.882-.379 16.268-1.028 12.464-1.503 25-2.747 37.305-5.134 9.604-1.863 20.033-3.448 28.108-8.398 17.707-10.855 30.626-26.302 34.264-47.736.179-1.051-1.712-3.393-2.834-3.529-2.346-.283-4.821.513-7.245.852-10.826 1.512-21.652 3.02-32.478 4.53l-21.568 3.002-1.405-11.361c7.792-1.099 15.253-1.867 22.597-3.252 10.96-2.068 21.996-4.178 31.784-9.901 1.7-.994 3.376-3.681 3.398-5.606.088-7.587-.055-15.232-.91-22.764-1.676-14.775-3.58-29.538-5.94-44.217-4.967-30.875-13.452-60.912-22.68-90.726-11.995-38.75-26.193-76.698-43.267-113.506-10.884-23.466-23.17-46.203-38.081-67.42-.818-1.164-2.066-2.026-4.07-3.943.228 3.355.198 5.176.497 6.942 2.173 12.83 4.724 25.604 6.553 38.48 2.322 16.348 4.369 32.748 5.986 49.179 1.418 14.402 2.622 28.868 2.926 43.327.327 15.575-.155 31.193-.966 46.757-.449 8.603-2.11 17.164-3.561 25.686-1.552 9.118-3.156 18.252-5.358 27.227-3.062 12.481-6.703 24.82-10.096 37.221l-.49-.166c.494-12.158.988-24.317 1.64-37.41-.054-10.691-.108-21.383-.03-33.005-.328-10.591-.607-21.185-1.008-31.774-.18-4.766-.62-9.521-.92-14.283-1.023-16.282-1.993-32.568-3.069-48.847-.563-8.525-.9-17.093-2.048-25.546-2.392-17.625-5.034-35.223-8.039-52.752-1.102-6.433-3.518-12.64-5.335-18.951-1.724 1.047-2.25 1.846-2.514 2.723-3.07 10.213-5.598 20.62-9.247 30.619-7.428 20.35-15.047 40.65-23.339 60.66-10.406 25.114-21.302 50.034-32.476 74.818-10.453 23.185-21.071 46.32-32.49 69.04-11.275 22.436-23.405 44.457-35.663 66.38-4.245 7.592-9.988 14.348-15.07 21.47-.692.969-1.521 1.84-2.287 2.758 1.232.54 2.46 1.54 3.696 1.55 12.84.107 25.694.391 38.523-.029 22.448-.734 44.89-1.772 67.318-3.003 9.804-.538 19.562-1.896 29.346-2.823 4.474-.423 8.96-.703 13.781-1.074-1.844 6.383-3.266 12.208-5.259 17.83-1 2.824-.614 3.746 2.312 4.284 4.91.904 9.75 2.195 14.434 3.28 1.633 4.255-1.26 5.286-4.024 5.488-11.836.863-23.687 1.604-35.545 2.069-13.482.528-26.985.565-40.457 1.245-1.593.08-4.089 2.693-4.374 4.426-.875 5.327-.88 10.796-2.147 16.363-10.032-.13-20.063-.26-29.973-.576 0 0-.16-.152-.105-.832-.344-.271-.688-.543-1.289-1.46-2.213-3.518-3.22-8.104-8.87-8.178-7.912-.104-15.818-.632-24.135-1.768z"/><path fill="#5DC6CF" d="m268.836 257.02-1.482 36.475.49.166c3.393-12.4 7.034-24.74 10.096-37.221 2.202-8.975 3.806-18.11 5.358-27.227 1.45-8.522 3.112-17.083 3.56-25.686.812-15.564 1.294-31.182.967-46.757-.304-14.459-1.508-28.925-2.926-43.327-1.617-16.431-3.664-32.83-5.986-49.178-1.83-12.877-4.38-25.652-6.553-38.481-.299-1.766-.269-3.587-.498-6.942 2.005 1.917 3.253 2.779 4.07 3.942 14.912 21.218 27.198 43.955 38.082 67.42 17.074 36.81 31.272 74.758 43.267 113.507 9.228 29.814 17.713 59.851 22.68 90.726 2.36 14.68 4.264 29.442 5.94 44.217.855 7.532.998 15.177.91 22.764-.022 1.925-1.698 4.612-3.398 5.606-9.788 5.723-20.824 7.833-31.784 9.9-7.344 1.386-14.805 2.154-22.597 3.253l1.405 11.361c7.163-.997 14.366-1.999 21.568-3.003 10.826-1.508 21.652-3.017 32.478-4.53 2.424-.338 4.899-1.134 7.245-.85 1.122.135 3.013 2.477 2.834 3.528-3.638 21.434-16.557 36.88-34.264 47.736-8.075 4.95-18.504 6.535-28.108 8.398-12.305 2.387-24.84 3.63-37.305 5.134-5.386.65-10.84.786-16.268 1.028-8.753.392-17.51.718-26.268.998-11.755.377-23.513.666-35.27 1.025-10.092.307-20.184.665-30.276.99-10.588.34-21.177.668-32.7.946-18.016-.007-35.098.042-52.18.09-19.364.029-38.455-1.818-57.293-6.738-4.856-1.269-4.255-3.775-3.483-6.518 2.667-9.474 5.719-18.839 8.608-28.25.758-2.47 1.96-4.935 2.081-7.444.296-6.137 3.61-7.724 9.07-7.157 1.72.178 3.514-.364 5.974-.372 14.539.278 28.379.353 42.219.428 7.909.346 15.815.874 23.728.978 5.649.074 6.656 4.66 9.025 8.83.463.93.77 1.21 1.077 1.488 0 0 .16.152.23.686 9.976.645 19.883.767 29.791.826.344.002.692-.61 1.038-.937.343-5.414.347-10.883 1.222-16.21.285-1.733 2.781-4.346 4.374-4.426 13.472-.68 26.975-.717 40.457-1.245 11.858-.465 23.709-1.206 35.545-2.07 2.765-.2 5.657-1.232 4.024-5.487-4.683-1.085-9.523-2.376-14.434-3.28-2.926-.538-3.312-1.46-2.312-4.284 1.993-5.622 3.415-11.447 5.259-17.83-4.82.37-9.307.65-13.78 1.074-9.785.927-19.543 2.285-29.347 2.823-22.427 1.231-44.87 2.269-67.318 3.003-12.829.42-25.682.136-38.523.029-1.236-.01-2.464-1.01-3.696-1.55.766-.917 1.595-1.79 2.287-2.759 5.082-7.121 10.825-13.877 15.07-21.47 12.258-21.922 24.388-43.943 35.664-66.38 11.418-22.718 22.036-45.854 32.489-69.04 11.174-24.783 22.07-49.703 32.476-74.816 8.292-20.01 15.911-40.31 23.339-60.661 3.65-9.999 6.177-20.406 9.247-30.619.264-.877.79-1.676 2.514-2.723 1.817 6.31 4.233 12.518 5.335 18.95 3.005 17.53 5.647 35.128 8.04 52.753 1.147 8.453 1.484 17.021 2.047 25.546 1.076 16.28 2.046 32.565 3.07 48.847.298 4.762.738 9.517.919 14.283.401 10.589.68 21.183.657 32.544-.44 8.52-.616 16.272-.575 24.022.017 3.05.518 6.098.798 9.147m18.27 122.945H267.98c0 2.68-.361 4.897.126 6.908.332 1.372 1.823 3.48 2.842 3.505 7.002.18 14.016-.101 21.58.413 10.107.06 20.214.139 30.32.132.705 0 1.41-.64 2.118-1.814-.316-2.991-.632-5.983-1.43-9.69-8.429-.141-16.858-.376-25.287-.38-3.404 0-6.808.506-11.144.926z"/><path fill="#D4FEFE" d="M393.843 550.005c-1.283.331-2.566.952-3.849.953-115.554.045-231.108.042-346.661.036-.662 0-1.323-.1-1.834-.598.15-.446.636-.498.865-.498.229 0 .672-.116 1.002-.065.774.03 1.218.008 2.124.054 111.775.079 223.088.092 334.4.098 4.332 0 8.663-.075 13.233-.077.239.038.72.097.72.097z"/><path fill="#A2D7DC" d="M41.991 462.156c8.653-.05 17.306-.146 25.959-.146 108.04-.006 216.08.003 324.563.316.444.31.4.805-.058.758a542627.43 542627.43 0 0 0-306.362-.076c-14.661 0-29.322.074-44.017-.128a28.27 28.27 0 0 1-.085-.724z"/><path fill="#ADDEE2" d="M392.914 463.131s.043-.496.062-.744c.353 1.188.977 2.623.98 4.059.054 27.544.036 55.088-.04 83.096-.073.463-.554.404-.78.136-.227-.267-.253-.727-.21-1.19.025-28.76.006-57.059-.012-85.357z"/><path fill="#C4F6FA" d="M41.57 462.273c.421-.117.472.367.464 1.063.04 28.665.086 56.634.11 84.857-.008.423.007.592-.02.996-.042.235.011.71.011.71s-.485.051-.729.067c-.247-29.18-.252-58.378.165-87.693z"/><path fill="#DAF9F8" d="M102.113 453.429c16.892-.449 33.974-.498 51.53-.484-.185.396-.843 1.022-1.5 1.022-16.613-.006-33.226-.078-50.03-.538z"/><path fill="#B4E3E6" d="M108.895 396.582c-13.636.32-27.476.245-41.612-.13 13.606-.289 27.507-.277 41.612.13z"/><path fill="#B4EBEF" d="M268.915 256.552c-.36-2.582-.86-5.63-.877-8.68a452.09 452.09 0 0 1 .509-23.557c.34 10.387.393 21.079.368 32.237z"/><path fill="#D6FDFE" d="M173.525 408.924c.117.25-.23.863-.575.861-9.908-.06-19.815-.18-29.852-.733 9.902-.312 19.933-.182 30.427-.128zM142.957 407.933c-.335.061-.642-.217-.977-.825.317-.058.66.214.977.825z"/><path d="M324.019 380.133c.316 2.992.632 5.984.483 9.431-11.152.497-21.84.538-32.528.579-7.01.133-14.023.415-21.025.234-1.019-.026-2.51-2.133-2.842-3.505-.487-2.01-.126-4.227-.126-6.908l20.054.001c12.613.057 24.299.113 35.984.168z"/><path fill="#BFEBEE" d="M323.778 379.776c-11.444.302-23.13.246-35.278.117 2.942-.349 6.346-.855 9.75-.854 8.43.003 16.858.238 25.528.737z"/><path fill="#D7F9FC" d="M292.252 390.467c10.41-.365 21.098-.406 32.249-.487-.242.303-.947.942-1.652.942-10.106.007-20.213-.073-30.597-.455z"/><path fill="#5DC6CF" d="M42.166 548.954c-.015-.169-.03-.338.24-1.07.39-2.38.585-4.198.587-6.015.02-24.152.134-48.304-.096-72.453-.043-4.523 1.349-5.512 5.654-5.506 87.11.12 174.222.088 261.333.1 1.528 0 3.055.175 5 .293-2.305 3.485-5.09 6.116-2.07 10.114-.717 2.25-1.375 4.126-2.458 7.211 3.162-.814 6.215-.68 7.105-2.002 2.603-3.871 4.345-8.322 6.727-12.79 2.01-1.108 3.71-2.708 5.425-2.724 18.964-.18 37.93-.027 56.895-.182 4.042-.033 5.591 1.154 5.566 5.386-.15 24.788-.054 49.577-.117 74.365-.005 1.768-.628 3.534-1.432 5.308-113.219.005-225.97-.002-338.722.036-2.258 0-4.516.519-6.775.795-.444.021-.888.043-1.772-.159-.618-.435-.835-.597-1.09-.707m237.384-42.329c-.206-1.691 2.57-4.314-2.43-4.648-2.666.01-5.33.026-7.995.028-12.635.009-12.635.007-11.036-12.98h22.523v-8.028c-10.165 0-19.928-.023-29.69.052-.644.005-1.283.76-1.886 1.551 0 0-.155.354-.712.986-.094 13.903-.198 27.807-.245 41.71-.002.577.525 1.155.963 2.1 0 0-.027.398.395 1.15 9.46.156 18.92.344 28.38.419 1.036.008 2.076-.64 3.232-1.871v-6.155c-8.458 0-16.164 0-24.016-.907.043-3.984.086-7.967 1.043-11.983 3.482-.005 6.971.132 10.443-.057 3.508-.19 6.998-.705 10.492-.981 0 0-.097 0 .539-.386m-101.68 14.033c.392 1.108.784 2.217 1.87 3.64 1.457 5.22 1.457 5.22 8.887 2.966-4.251-12.547-8.508-25.089-12.75-37.635-2.645-7.822-2.635-7.687-11.27-7.715-3.02-.01-4.179.955-5.081 3.884-3.65 11.846-7.697 23.57-11.565 35.35-.811 2.47-1.485 4.986-2.317 7.803 5.324.033 8.837-.995 10.284-6.23 1.891-.904 3.738-2.458 5.681-2.59 5.464-.373 10.968-.16 16.383-.164 0 0 .067-.036-.122.69m148.12-38.663s.09-.007-.616.473c-.127 11.886-.255 23.771-.393 36.428-3.684 3.817-15.778 4.636-19.343 1.125-.905-.892-1.081-2.523-1.512-4.78v-33.83h-9.198c0 9.84-.074 19.28.041 28.72.04 3.262.551 6.519 1.054 10.511 1.196 4.502 3.759 7.25 8.753 7.405 4.733.147 9.496 1.164 14.178.835 11.128-.782 13.702-3.553 14.89-14.333.062-9.91.123-19.82.117-30.38.02-.651.039-1.303-.298-2.704-2.557.207-5.113.413-7.673.53m-102.002.001s.089-.009-.607.482c-.111 12.2-.222 24.4-.372 36.541 0 0 .071-.002-.469.132-.172.32-.343.64-.879 1.647-8.96 3.567-11.543 1.716-13.16-9.533h-6.523c0 2.405-.022 4.54.004 6.676.087 7.192 3.468 10.702 10.752 11.05 2.493.12 4.997.027 7.496.004 6.763-.06 10.17-3.172 11.713-10.187-.008-12.272-.016-24.543.07-36.81 0 0-.002.093-.395-.62-2.541.236-5.083.472-7.63.618m-102.637-.74h-20.386c0 15.445-.01 30.239.036 45.033.002.562.545 1.122 1.218 2.393l7.01-1.004v-13.673c4.942 0 9.678.633 14.149-.185 4.136-.757 9.342-1.985 11.684-4.917 4.925-6.166 3.672-13.875 1.26-21.005-1.922-5.684-7.69-4.39-11.897-5.878-.752-.266-1.642-.142-3.074-.765z"/><path fill="#7BBFC7" d="M45.49 549.887c1.797-.343 4.055-.861 6.313-.862 112.752-.038 225.503-.031 339.038-.033 1.203-.016 1.622-.029 2.042-.041 0 0 .026.46.013.69-4.343.269-8.674.344-13.005.344-111.313-.006-222.626-.019-334.401-.098zM42.124 549.19c.297-.126.514.036.802.42.11.172-.333.288-.562.288-.229 0-.282-.474-.24-.709z"/><path fill="#64BDC5" d="M392.926 548.488c-.463.475-.882.488-1.617.497.02-1.77.643-3.536.648-5.304.063-24.788-.034-49.577.117-74.365.025-4.232-1.524-5.42-5.566-5.386-18.964.155-37.931.002-56.895.182-1.715.016-3.414 1.616-5.866 2.688-6.323-.615-10.677.323-10.876 7.243-3.076-3.624-.292-6.255 2.014-9.74-1.946-.118-3.473-.292-5.001-.293-87.111-.012-174.222.02-261.333-.1-4.305-.006-5.697.983-5.654 5.506.23 24.149.116 48.301.096 72.453-.002 1.817-.197 3.635-.564 5.761-.309-27.66-.355-55.629-.36-84.053 14.702-.495 29.363-.57 44.024-.57 101.968.002 203.936.018 306.362.077.477 28.345.496 56.644.471 85.404z"/><path d="M155.242 522.946c-.76 5.01-4.274 6.038-9.598 6.005.832-2.817 1.506-5.332 2.317-7.803 3.868-11.78 7.915-23.504 11.565-35.35.902-2.929 2.06-3.894 5.08-3.884 8.636.028 8.626-.107 11.27 7.715 4.243 12.546 8.5 25.088 12.751 37.635-7.43 2.253-7.43 2.253-9.273-3.506-.689-1.636-.992-2.731-1.295-3.827 0 0-.067.036-.228-.365-6.21-.458-12.263-.387-18.304-.625-3.049-.12-4.486.923-4.285 4.005m17.669-19.254-5.072-13.575c-5.614 7.652-7.525 15.415-9.186 23.964 3.5-.406 6.19-.787 8.893-1.01 2.714-.225 5.442-.293 8.164-.429-.905-2.717-1.81-5.433-2.8-8.95zM121.956 481.82c.827.057 1.717-.067 2.469.199 4.206 1.487 9.975.194 11.897 5.878 2.412 7.13 3.665 14.84-1.26 21.005-2.342 2.932-7.548 4.16-11.684 4.917-4.47.818-9.207.185-14.148.185v13.673c-2.47.354-4.74.679-7.126.186-.115-15.754-.115-30.689-.115-46.043h19.967m-10.947 24.132c3.496.012 6.993-.034 10.488.05 3.63.09 7.28-.286 8.414-4.31 1.773-6.292-.145-10.47-5.167-13.447h-15.736c0 2.901-.137 5.394.034 7.864.225 3.237.694 6.457 1.967 9.843zM304.045 516.205c.512 1.292.688 2.923 1.593 3.815 3.565 3.511 15.659 2.692 19.752-1.708.503-12.496.596-24.41.69-36.325 0 0-.09.007.357.023 2.825.079 5.204.14 7.582.203-.02.652-.039 1.304-.419 2.5-.39 10.483-.42 20.422-.45 30.361-.494 10.254-3.068 13.025-14.196 13.807-4.682.329-9.445-.688-14.178-.835-4.994-.155-7.557-2.903-8.802-8.231-.048-13.065-.048-25.303-.048-37.599h7.069c0 9.989-.044 19.753.047 29.516.014 1.494.653 2.983 1.003 4.473zM248.88 482.954s.156-.354.6-.642c10.335-.288 20.228-.288 30.314-.288v5.989c-5.886 0-11.64-.08-17.39.048-1.749.039-3.485.649-5.228.997-.686 12.954-.686 12.956 11.949 12.947 2.664-.002 5.33-.018 8.808.097.87 1.72.925 3.314.98 4.91 0 0 .098-.001-.37-.014-5.56-.008-10.655-.099-15.743.05-1.888.056-3.759.672-5.638 1.033-.043 3.984-.086 7.967.032 12.84 7.677.89 15.192.89 22.69.89 0 2.534 0 4.34-.46 6.165-10.444-.05-20.427-.115-30.41-.182 0 0 .028-.398.002-1.053-.063-15.032-.1-29.41-.135-43.787zM231.173 519.022c-.772 6.8-4.18 9.912-10.943 9.972-2.499.023-5.003.115-7.496-.004-7.284-.348-10.665-3.858-10.752-11.05-.026-2.135-.004-4.271-.004-6.676h6.523c1.617 11.25 4.2 13.1 13.608 9.11.623-.735.797-1.047.971-1.358 0 0-.071.002.35-.156.497-12.397.572-24.635.647-36.874 0 0-.089.01.359.027 2.823.038 5.2.058 7.575.077 0 0 .001-.092-.013.375-.01 9.59.06 18.714-.039 27.835-.031 2.91-.511 5.815-.786 8.722zM312.813 474.417c.257-7.294 4.611-8.232 10.63-7.372-1.637 4.26-3.379 8.71-5.982 12.58-.89 1.323-3.943 1.189-7.105 2.003 1.083-3.085 1.741-4.961 2.457-7.21z"/><path fill="#E1FDFD" d="M304.085 515.723c-.39-1.008-1.03-2.497-1.043-3.99-.091-9.764-.047-19.528-.047-29.517h-7.069c0 12.296 0 24.534-.055 37.232-.35-2.8-.862-6.056-.902-9.319-.115-9.438-.04-18.879-.04-28.718h9.197c0 11.367 0 22.598-.04 34.312z"/><path fill="#DFFCFD" d="M121.654 481.537c-6.167.283-12.636.283-19.665.283 0 15.354 0 30.29-.076 45.687-.367-.097-.91-.657-.912-1.22-.046-14.793-.036-29.587-.036-45.033 6.935 0 13.66 0 20.689.283z"/><path fill="#D1F5F7" d="M257.633 489.041c1.286-.331 3.022-.941 4.772-.98 5.749-.128 11.503-.048 17.39-.048v-5.99c-10.087 0-19.98 0-30.335.097.18-.31.818-1.066 1.462-1.07 9.762-.076 19.525-.053 29.69-.053v8.027c-7.43 0-14.977 0-22.98.017z"/><path fill="#99DAE5" d="M248.602 483.27c.315 14.061.351 28.439.335 43.287-.333-.106-.86-.684-.858-1.26.047-13.904.151-27.808.523-42.027z"/><path fill="#ACDCE1" d="M231.558 518.914c-.11-2.799.37-5.704.401-8.614.1-9.121.03-18.245-.007-27.837-.025 11.801-.017 24.072-.394 36.451z"/><path fill="#C4ECF0" d="M223.729 482.231a600.057 600.057 0 0 1-.28 36.659c-.29-12.012-.18-24.213.28-36.659z"/><path fill="#C7EFF4" d="M325.727 482.227c.259 11.674.166 23.589-.331 35.7-.277-11.689-.15-23.574.33-35.7z"/><path fill="#C4EDEE" d="M249.226 528.17c9.771-.31 19.754-.243 30.459-.189a35.303 35.303 0 0 1 1.245 0c-1.037.344-2.077.992-3.112.984-9.461-.075-18.921-.263-28.592-.794z"/><path fill="#FFF" d="M333.498 514.811a399.78 399.78 0 0 1 .136-29.774c.333 9.69.272 19.6-.136 29.774z"/><path fill="#D6F6F8" d="M280.99 527.538c-.234.44-.408.436-.844.426-.262-1.812-.262-3.619-.262-6.154-7.498 0-15.013 0-22.617-.435 7.618-.436 15.324-.436 23.782-.436 0 2.365 0 4.26-.06 6.599z"/><path fill="#B2E5E9" d="M155.585 522.834c-.544-2.97.893-4.013 3.942-3.893 6.041.238 12.095.167 18.34.618-5.29.412-10.794.2-16.258.572-1.943.132-3.79 1.686-6.024 2.703z"/><path fill="#BDF1F7" d="M257.62 508.065c1.421-.345 3.292-.961 5.18-1.017 5.088-.149 10.183-.058 15.745-.099-3.028.338-6.518.852-10.026 1.043-3.472.19-6.961.052-10.9.073z"/><path fill="#C4ECF0" d="M231.815 481.734c-2.18.337-4.556.317-7.376.324 2.096-.21 4.638-.445 7.376-.324z"/><path fill="#C7EFF4" d="M333.841 481.839c-2.2.312-4.579.25-7.403.216 2.112-.178 4.668-.384 7.403-.216z"/><path fill="#BDF1F7" d="M279.232 506.818c-.374-1.402-.43-2.997-.833-4.792 3.722.285.945 2.908.833 4.792z"/><path fill="#B2E5E9" d="M177.964 520.294c.398.733.701 1.828 1.043 3.307-.353-.726-.745-1.835-1.043-3.307z"/><path fill="#C4ECF0" d="M222.81 519.083c.096.244-.078.556-.519.947-.094-.24.077-.56.52-.947z"/><path fill="#69C5CD" d="M172.952 504.092c.948 3.117 1.853 5.833 2.758 8.55-2.722.136-5.45.204-8.164.429-2.703.223-5.393.604-8.893 1.01 1.66-8.55 3.572-16.312 9.186-23.964 1.932 5.17 3.502 9.373 5.113 13.975z"/><path fill="#63C4CD" d="M124.86 489.147c4.906 2.074 6.824 6.253 5.05 12.544-1.133 4.025-4.783 4.4-8.413 4.312-3.495-.085-6.992-.04-10.981-.582-.493-5.619-.493-10.706-.493-16.274h14.837z"/><path fill="#D9FCFE" d="M124.802 488.696c-4.698.451-9.454.451-14.78.451 0 5.568 0 10.655.04 16.194-.326-2.775-.795-5.995-1.02-9.232-.171-2.47-.034-4.963-.034-7.864 5.295 0 10.515 0 15.794.451z"/></svg>